<?xml version="1.0" standalone="no"?>
<!DOCTYPE svg PUBLIC "-//W3C//DTD SVG 20010904//EN"
 "http://www.w3.org/TR/2001/REC-SVG-20010904/DTD/svg10.dtd">
<svg version="1.0" xmlns="http://www.w3.org/2000/svg"
 width="700.000000pt" height="700.000000pt" viewBox="0 0 700.000000 700.000000"
 preserveAspectRatio="xMidYMid meet">
<metadata>
Created by potrace 1.11, written by Peter Selinger 2001-2013
</metadata>
<g transform="translate(0.000000,700.000000) scale(0.100000,-0.100000)"
fill="#000000" stroke="none">
<path d="M5013 6951 c-110 -41 -220 -145 -345 -326 -99 -145 -205 -398 -234
-558 -2 -17 -7 -33 -9 -36 -2 -4 -6 -27 -10 -51 -3 -25 -8 -52 -10 -60 -4 -15
-13 -90 -21 -170 -2 -25 -7 -72 -10 -105 -5 -56 -6 -536 -1 -654 l2 -54 -70 3
c-125 7 -598 5 -685 -3 -521 -48 -861 -188 -1146 -472 -223 -223 -352 -477
-423 -835 -31 -157 -38 -204 -48 -344 -9 -121 -8 -474 0 -613 l7 -112 -77 6
c-112 9 -553 8 -653 -1 -117 -10 -243 -25 -270 -31 -3 -1 -25 -5 -50 -9 -309
-55 -613 -199 -811 -385 -112 -104 -143 -187 -111 -298 41 -144 196 -219 340
-165 l50 19 633 -633 633 -633 -17 -35 c-95 -200 103 -420 315 -350 96 31 235
198 338 404 104 207 192 534 227 837 8 70 10 580 3 668 l-4 50 384 1 c212 0
396 3 410 7 14 3 54 8 90 12 36 3 72 8 80 10 8 2 31 6 50 9 462 72 859 318
1085 672 96 150 189 376 221 539 62 313 77 548 63 995 l-4 135 70 -4 c255 -15
696 -3 870 24 405 62 704 199 939 429 119 116 157 189 158 302 1 136 -97 222
-242 212 -62 -5 -170 -43 -170 -60 0 -5 -6 -8 -12 -8 -7 0 -297 284 -644 631
l-632 632 34 66 c74 147 48 273 -70 333 -58 30 -156 33 -223 9z m1312 -1856
c-64 -48 -249 -122 -385 -154 l-84 -19 -468 467 c-257 257 -468 474 -468 482
0 25 48 204 69 257 23 58 76 165 99 200 15 23 21 18 636 -597 590 -590 620
-621 601 -636z m-809 -203 c-12 -11 -602 0 -614 12 -10 10 -27 600 -18 615 3
5 148 -133 322 -306 173 -173 313 -318 310 -321z m-1256 -466 c79 -4 145 -8
147 -9 11 -12 27 -663 16 -681 -3 -4 -163 149 -354 340 l-349 349 52 5 c68 6
304 4 488 -4z m116 -1046 c-24 -128 -114 -338 -181 -425 -15 -19 -44 9 -640
605 l-625 625 28 22 c68 55 233 128 367 163 l70 18 493 -491 c431 -430 492
-495 488 -517z m-1000 0 c338 -337 614 -619 614 -625 0 -14 -124 -86 -207
-120 -90 -36 -234 -76 -252 -70 -9 3 -233 223 -498 488 l-483 483 21 75 c25
92 50 160 86 236 37 78 86 154 96 150 5 -1 285 -279 623 -617z m-508 -522
c180 -180 328 -331 330 -336 5 -16 -651 -3 -667 14 -8 8 -11 73 -18 384 -5
278 -5 294 12 280 9 -7 164 -161 343 -342z m-837 -815 c15 -15 34 -550 20
-571 -3 -5 -141 126 -306 290 l-300 300 289 -5 c159 -3 293 -10 297 -14z
m-486 -440 c235 -236 440 -442 455 -460 l28 -31 -24 -102 c-26 -109 -90 -282
-127 -342 l-23 -37 -614 614 c-338 338 -612 616 -610 618 18 15 127 68 185 90
79 30 225 68 291 76 6 0 204 -191 439 -426z"/>
</g>
</svg>
